<?xml version="1.0" ?><svg viewBox="0 0 24 24" xmlns="http://www.w3.org/2000/svg"><title/><g id="card"><path d="M20.5,5H3.5A1.5,1.5,0,0,0,2,6.5v11A1.5,1.5,0,0,0,3.5,19h17A1.5,1.5,0,0,0,22,17.5V6.5A1.5,1.5,0,0,0,20.5,5ZM3.5,6h17a.5.5,0,0,1,.5.5V7.94H3V6.5A.5.5,0,0,1,3.5,6Zm17,12H3.5a.5.5,0,0,1-.5-.5V8.94H21V17.5A.5.5,0,0,1,20.5,18Z"/><path d="M16.5,11a2.43,2.43,0,0,0-1.5.51A2.47,2.47,0,0,0,13.5,11a2.5,2.5,0,0,0,0,5,2.47,2.47,0,0,0,1.5-.51,2.43,2.43,0,0,0,1.5.51,2.5,2.5,0,0,0,0-5ZM12,13.5A1.5,1.5,0,1,1,13.5,15,1.5,1.5,0,0,1,12,13.5ZM16.5,15a1.5,1.5,0,0,1-.84-.27,2.39,2.39,0,0,0,0-2.46A1.5,1.5,0,1,1,16.5,15Z"/><path d="M8.5,13h-3a.5.5,0,0,0,0,1h3a.5.5,0,0,0,0-1Z"/></g></svg>